<mxfile host="app.diagrams.net" modified="2021-12-19T14:59:42.010Z" agent="5.0 (Windows NT 10.0; Win64; x64) AppleWebKit/537.36 (KHTML, like Gecko) Chrome/93.0.4577.82 Safari/537.36" etag="tv8Muazz_X2spoRvR4l4" version="16.0.0" type="github">
  <diagram id="N6iheb9aDckFjG0RSzqi" name="第 1 页">
    <mxGraphModel dx="1886" dy="810" grid="1" gridSize="10" guides="1" tooltips="1" connect="1" arrows="1" fold="1" page="1" pageScale="1" pageWidth="827" pageHeight="1169" background="#ffffff" math="0" shadow="0">
      <root>
        <mxCell id="0" />
        <mxCell id="1" parent="0" />
        <mxCell id="JG_VN5o2LXxnlLH04DmI-5" style="rounded=0;orthogonalLoop=1;jettySize=auto;html=1;exitX=0;exitY=1;exitDx=0;exitDy=0;entryX=1;entryY=0;entryDx=0;entryDy=0;endArrow=none;endFill=0;" edge="1" parent="1" source="JG_VN5o2LXxnlLH04DmI-1" target="JG_VN5o2LXxnlLH04DmI-2">
          <mxGeometry relative="1" as="geometry" />
        </mxCell>
        <mxCell id="JG_VN5o2LXxnlLH04DmI-7" style="edgeStyle=none;rounded=0;orthogonalLoop=1;jettySize=auto;html=1;exitX=1;exitY=1;exitDx=0;exitDy=0;entryX=0;entryY=0;entryDx=0;entryDy=0;endArrow=none;endFill=0;" edge="1" parent="1" source="JG_VN5o2LXxnlLH04DmI-1" target="JG_VN5o2LXxnlLH04DmI-3">
          <mxGeometry relative="1" as="geometry" />
        </mxCell>
        <mxCell id="JG_VN5o2LXxnlLH04DmI-1" value="&lt;font face=&quot;Comic Sans MS&quot; style=&quot;font-size: 15px&quot;&gt;3&lt;/font&gt;" style="ellipse;whiteSpace=wrap;html=1;aspect=fixed;fillColor=#f8cecc;strokeColor=#b85450;" vertex="1" parent="1">
          <mxGeometry x="240" y="40" width="40" height="40" as="geometry" />
        </mxCell>
        <mxCell id="JG_VN5o2LXxnlLH04DmI-6" style="edgeStyle=none;rounded=0;orthogonalLoop=1;jettySize=auto;html=1;exitX=1;exitY=1;exitDx=0;exitDy=0;entryX=0;entryY=0;entryDx=0;entryDy=0;endArrow=none;endFill=0;" edge="1" parent="1" source="JG_VN5o2LXxnlLH04DmI-2" target="JG_VN5o2LXxnlLH04DmI-4">
          <mxGeometry relative="1" as="geometry" />
        </mxCell>
        <mxCell id="JG_VN5o2LXxnlLH04DmI-2" value="&lt;font face=&quot;Comic Sans MS&quot; style=&quot;font-size: 15px&quot;&gt;1&lt;/font&gt;" style="ellipse;whiteSpace=wrap;html=1;aspect=fixed;fillColor=#f8cecc;strokeColor=#b85450;" vertex="1" parent="1">
          <mxGeometry x="160" y="120" width="40" height="40" as="geometry" />
        </mxCell>
        <mxCell id="JG_VN5o2LXxnlLH04DmI-3" value="&lt;font face=&quot;Comic Sans MS&quot; style=&quot;font-size: 15px&quot;&gt;4&lt;/font&gt;" style="ellipse;whiteSpace=wrap;html=1;aspect=fixed;fillColor=#f8cecc;strokeColor=#b85450;" vertex="1" parent="1">
          <mxGeometry x="320" y="120" width="40" height="40" as="geometry" />
        </mxCell>
        <mxCell id="JG_VN5o2LXxnlLH04DmI-4" value="&lt;font face=&quot;Comic Sans MS&quot; style=&quot;font-size: 15px&quot;&gt;2&lt;/font&gt;" style="ellipse;whiteSpace=wrap;html=1;aspect=fixed;fillColor=#f8cecc;strokeColor=#b85450;" vertex="1" parent="1">
          <mxGeometry x="240" y="200" width="40" height="40" as="geometry" />
        </mxCell>
        <mxCell id="JG_VN5o2LXxnlLH04DmI-8" style="rounded=0;orthogonalLoop=1;jettySize=auto;html=1;exitX=0;exitY=1;exitDx=0;exitDy=0;entryX=1;entryY=0;entryDx=0;entryDy=0;endArrow=none;endFill=0;" edge="1" parent="1" source="JG_VN5o2LXxnlLH04DmI-10" target="JG_VN5o2LXxnlLH04DmI-12">
          <mxGeometry relative="1" as="geometry" />
        </mxCell>
        <mxCell id="JG_VN5o2LXxnlLH04DmI-9" style="edgeStyle=none;rounded=0;orthogonalLoop=1;jettySize=auto;html=1;exitX=1;exitY=1;exitDx=0;exitDy=0;entryX=0;entryY=0;entryDx=0;entryDy=0;endArrow=none;endFill=0;" edge="1" parent="1" source="JG_VN5o2LXxnlLH04DmI-10" target="JG_VN5o2LXxnlLH04DmI-13">
          <mxGeometry relative="1" as="geometry" />
        </mxCell>
        <mxCell id="JG_VN5o2LXxnlLH04DmI-10" value="&lt;font face=&quot;Comic Sans MS&quot; style=&quot;font-size: 15px&quot;&gt;5&lt;/font&gt;" style="ellipse;whiteSpace=wrap;html=1;aspect=fixed;fillColor=#f8cecc;strokeColor=#b85450;" vertex="1" parent="1">
          <mxGeometry x="800" y="240" width="40" height="40" as="geometry" />
        </mxCell>
        <mxCell id="JG_VN5o2LXxnlLH04DmI-11" style="edgeStyle=none;rounded=0;orthogonalLoop=1;jettySize=auto;html=1;exitX=1;exitY=1;exitDx=0;exitDy=0;entryX=0;entryY=0;entryDx=0;entryDy=0;endArrow=none;endFill=0;" edge="1" parent="1" source="JG_VN5o2LXxnlLH04DmI-12" target="JG_VN5o2LXxnlLH04DmI-14">
          <mxGeometry relative="1" as="geometry" />
        </mxCell>
        <mxCell id="JG_VN5o2LXxnlLH04DmI-17" style="edgeStyle=none;rounded=0;orthogonalLoop=1;jettySize=auto;html=1;exitX=0;exitY=1;exitDx=0;exitDy=0;entryX=1;entryY=0;entryDx=0;entryDy=0;fontFamily=Comic Sans MS;fontSize=15;endArrow=none;endFill=0;" edge="1" parent="1" source="JG_VN5o2LXxnlLH04DmI-12" target="JG_VN5o2LXxnlLH04DmI-15">
          <mxGeometry relative="1" as="geometry" />
        </mxCell>
        <mxCell id="JG_VN5o2LXxnlLH04DmI-12" value="&lt;font face=&quot;Comic Sans MS&quot; style=&quot;font-size: 15px&quot;&gt;3&lt;/font&gt;" style="ellipse;whiteSpace=wrap;html=1;aspect=fixed;fillColor=#f8cecc;strokeColor=#b85450;" vertex="1" parent="1">
          <mxGeometry x="720" y="320" width="40" height="40" as="geometry" />
        </mxCell>
        <mxCell id="JG_VN5o2LXxnlLH04DmI-13" value="&lt;font face=&quot;Comic Sans MS&quot; style=&quot;font-size: 15px&quot;&gt;6&lt;/font&gt;" style="ellipse;whiteSpace=wrap;html=1;aspect=fixed;fillColor=#f8cecc;strokeColor=#b85450;" vertex="1" parent="1">
          <mxGeometry x="880" y="320" width="40" height="40" as="geometry" />
        </mxCell>
        <mxCell id="JG_VN5o2LXxnlLH04DmI-14" value="&lt;font face=&quot;Comic Sans MS&quot; style=&quot;font-size: 15px&quot;&gt;4&lt;/font&gt;" style="ellipse;whiteSpace=wrap;html=1;aspect=fixed;fillColor=#f8cecc;strokeColor=#b85450;" vertex="1" parent="1">
          <mxGeometry x="800" y="400" width="40" height="40" as="geometry" />
        </mxCell>
        <mxCell id="JG_VN5o2LXxnlLH04DmI-18" style="edgeStyle=none;rounded=0;orthogonalLoop=1;jettySize=auto;html=1;exitX=0;exitY=1;exitDx=0;exitDy=0;entryX=1;entryY=0;entryDx=0;entryDy=0;fontFamily=Comic Sans MS;fontSize=15;endArrow=none;endFill=0;" edge="1" parent="1" source="JG_VN5o2LXxnlLH04DmI-15" target="JG_VN5o2LXxnlLH04DmI-16">
          <mxGeometry relative="1" as="geometry" />
        </mxCell>
        <mxCell id="JG_VN5o2LXxnlLH04DmI-15" value="&lt;font face=&quot;Comic Sans MS&quot; style=&quot;font-size: 15px&quot;&gt;2&lt;/font&gt;" style="ellipse;whiteSpace=wrap;html=1;aspect=fixed;fillColor=#f8cecc;strokeColor=#b85450;" vertex="1" parent="1">
          <mxGeometry x="640" y="400" width="40" height="40" as="geometry" />
        </mxCell>
        <mxCell id="JG_VN5o2LXxnlLH04DmI-16" value="&lt;font face=&quot;Comic Sans MS&quot; style=&quot;font-size: 15px&quot;&gt;1&lt;/font&gt;" style="ellipse;whiteSpace=wrap;html=1;aspect=fixed;fillColor=#f8cecc;strokeColor=#b85450;" vertex="1" parent="1">
          <mxGeometry x="560" y="480" width="40" height="40" as="geometry" />
        </mxCell>
        <mxCell id="JG_VN5o2LXxnlLH04DmI-19" value="中序遍历节点访问顺序为" style="text;html=1;strokeColor=none;fillColor=none;align=center;verticalAlign=middle;whiteSpace=wrap;rounded=0;fontFamily=Comic Sans MS;fontSize=15;" vertex="1" parent="1">
          <mxGeometry x="600" y="520" width="280" height="40" as="geometry" />
        </mxCell>
        <mxCell id="JG_VN5o2LXxnlLH04DmI-20" value="1 -&amp;gt; 2 -&amp;gt; 3 -&amp;gt; 4 -&amp;gt; 5 -&amp;gt; 6" style="text;html=1;strokeColor=none;fillColor=none;align=center;verticalAlign=middle;whiteSpace=wrap;rounded=0;fontFamily=Comic Sans MS;fontSize=15;" vertex="1" parent="1">
          <mxGeometry x="600" y="560" width="280" height="40" as="geometry" />
        </mxCell>
      </root>
    </mxGraphModel>
  </diagram>
</mxfile>
